<svg width="20" height="20" viewBox="0 0 20 20" fill="none" xmlns="http://www.w3.org/2000/svg">
<path d="M7.025 20C6.79167 20 6.5875 19.9375 6.4125 19.8125C6.2375 19.6875 6.11667 19.5167 6.05 19.3L3.5 11H0V9H4.25C4.46667 9 4.6625 9.0625 4.8375 9.1875C5.0125 9.3125 5.13333 9.48333 5.2 9.7L6.85 15.075L10.025 0.8C10.075 0.566667 10.1917 0.375 10.375 0.225C10.5583 0.075 10.7667 0 11 0C11.2333 0 11.4417 0.0708333 11.625 0.2125C11.8083 0.354167 11.925 0.541667 11.975 0.775L14.15 10.175L15.55 5.7C15.6167 5.48333 15.7375 5.3125 15.9125 5.1875C16.0875 5.0625 16.2833 5 16.5 5C16.7167 5 16.9083 5.05833 17.075 5.175C17.2417 5.29167 17.3667 5.45 17.45 5.65L18.7 9H20V11H18C17.7833 11 17.5917 10.9417 17.425 10.825C17.2583 10.7083 17.1333 10.55 17.05 10.35L16.575 9.075L14.95 14.3C14.8833 14.5167 14.7583 14.6917 14.575 14.825C14.3917 14.9583 14.1833 15.0167 13.95 15C13.7167 14.9833 13.5167 14.9042 13.35 14.7625C13.1833 14.6208 13.075 14.4417 13.025 14.225L11 5.525L7.975 19.225C7.925 19.4583 7.8125 19.6417 7.6375 19.775C7.4625 19.9083 7.25833 19.9833 7.025 20Z" fill="url(#paint0_linear_32_37)"/>
<defs>
<linearGradient id="paint0_linear_32_37" x1="10" y1="0" x2="10" y2="20" gradientUnits="userSpaceOnUse">
<stop offset="0.172892" stop-color="#F479FF" stop-opacity="0.8"/>
<stop offset="0.593728" stop-color="#927EF0" stop-opacity="0.8"/>
<stop offset="1" stop-color="#2F82E0" stop-opacity="0.8"/>
</linearGradient>
</defs>
</svg>
